<svg width="133" height="18" viewBox="0 0 133 18" fill="none" xmlns="http://www.w3.org/2000/svg">
<path d="M97.011 0.768799H98.8446V13.9179H97.011V0.768799Z" fill="white"/>
<path d="M102.246 13.7493C101.686 13.514 101.262 13.1862 100.975 12.7675C100.688 12.3489 100.545 11.8669 100.545 11.3233C100.545 10.3756 100.883 9.66483 101.558 9.19102C102.233 8.71713 103.137 8.44615 104.268 8.37965L107.835 8.15084V7.87494C107.835 7.20963 107.614 6.70821 107.169 6.37555C106.726 6.04289 106.101 5.87574 105.295 5.87574H104.993C104.363 5.87574 103.838 5.99583 103.416 6.23761C102.994 6.4794 102.749 6.81693 102.682 7.25021H100.811C100.871 6.69361 101.092 6.19543 101.471 5.75566C101.85 5.31589 102.359 4.97025 102.999 4.71872C103.638 4.46882 104.354 4.34387 105.149 4.34387C106.11 4.34387 106.927 4.49316 107.606 4.79337C108.284 5.09358 108.798 5.51225 109.146 6.04938C109.494 6.5865 109.668 7.20801 109.668 7.91068V11.8539C109.668 12.1347 109.681 12.4673 109.706 12.8487C109.73 13.23 109.764 13.587 109.806 13.9165H108.053C108.016 13.7152 107.987 13.4442 107.963 13.1051C107.938 12.7659 107.925 12.5403 107.925 12.4316C107.779 12.7188 107.531 12.9915 107.182 13.2479C106.833 13.5042 106.408 13.712 105.908 13.8678C105.407 14.0236 104.86 14.1014 104.266 14.1014C103.477 14.1014 102.804 13.9846 102.244 13.7493H102.246ZM104.715 12.5696C105.235 12.5696 105.733 12.4884 106.21 12.3261C106.687 12.1638 107.077 11.9156 107.38 11.5829C107.682 11.2503 107.832 10.8381 107.832 10.3496V9.57886L104.861 9.74435C103.982 9.79956 103.353 9.95043 102.972 10.1987C102.593 10.447 102.403 10.7894 102.403 11.2308C102.403 11.6463 102.569 11.974 102.9 12.2125C103.229 12.4511 103.745 12.5696 104.449 12.5696H104.715Z" fill="white"/>
<path d="M115.273 13.6761C114.604 13.3921 114.088 13.014 113.728 12.5434V13.9195H111.895V0.768799H113.728V5.95833C113.93 5.65163 114.215 5.37739 114.585 5.13235C114.955 4.88732 115.379 4.69583 115.859 4.55466C116.34 4.41348 116.839 4.3437 117.359 4.3437C118.355 4.3437 119.232 4.53032 119.995 4.90355C120.756 5.27678 121.352 5.82851 121.784 6.55874C122.215 7.28898 122.431 8.17665 122.431 9.22167C122.431 10.2667 122.215 11.0846 121.784 11.8213C121.353 12.558 120.752 13.1211 119.978 13.5122C119.203 13.9033 118.319 14.0997 117.323 14.0997C116.626 14.0997 115.943 13.9568 115.273 13.6729V13.6761ZM117.359 12.5694C117.988 12.5694 118.546 12.4396 119.032 12.18C119.518 11.9203 119.895 11.5373 120.164 11.0343C120.434 10.5296 120.568 9.92595 120.568 9.22327C120.568 8.52065 120.434 7.91696 120.164 7.41231C119.895 6.90764 119.518 6.52629 119.032 6.26665C118.546 6.00701 117.988 5.87719 117.359 5.87719H117.092C116.451 5.87719 115.877 6.00701 115.369 6.26665C114.861 6.52629 114.462 6.90926 114.168 7.41231C113.874 7.91696 113.728 8.52065 113.728 9.22327C113.728 9.92595 113.874 10.5296 114.168 11.0343C114.462 11.5389 114.863 11.9203 115.369 12.18C115.877 12.4396 116.451 12.5694 117.092 12.5694H117.359Z" fill="white"/>
<path d="M125.607 13.7249C124.943 13.475 124.433 13.1179 124.075 12.6571C123.718 12.1962 123.519 11.6477 123.484 11.0116H125.363C125.407 11.5196 125.662 11.9058 126.129 12.1719C126.596 12.438 127.179 12.5711 127.877 12.5711H128.143C128.888 12.5711 129.467 12.477 129.876 12.2871C130.287 12.0972 130.491 11.8035 130.491 11.4076C130.491 11.2064 130.436 11.0312 130.325 10.8851C130.215 10.739 130.025 10.6076 129.757 10.4908C129.489 10.3739 129.118 10.2701 128.648 10.1792L127.088 9.88548C126.043 9.68425 125.256 9.37918 124.727 8.97346C124.198 8.56781 123.934 7.98199 123.934 7.21768C123.934 6.61889 124.114 6.10285 124.475 5.66796C124.836 5.23306 125.326 4.90527 125.943 4.68133C126.559 4.45739 127.247 4.34705 128.005 4.34705C129.43 4.34705 130.522 4.61967 131.283 5.16815C132.044 5.71502 132.461 6.47122 132.536 7.43675H130.655C130.624 7.14303 130.509 6.87853 130.306 6.64323C130.105 6.40793 129.821 6.22131 129.454 6.08338C129.087 5.94545 128.649 5.87729 128.143 5.87729H127.877C127.216 5.87729 126.704 5.98601 126.34 6.20346C125.976 6.42091 125.795 6.70651 125.795 7.06027C125.795 7.255 125.845 7.4189 125.946 7.55034C126.046 7.68177 126.23 7.79863 126.496 7.90247C126.762 8.00631 127.145 8.10696 127.647 8.20428L129.113 8.48829C130.165 8.68952 130.965 9.00755 131.517 9.44243C132.067 9.87572 132.342 10.4908 132.342 11.2859C132.342 11.849 132.169 12.3423 131.82 12.7674C131.473 13.1926 130.972 13.5204 130.32 13.7541C129.67 13.9861 128.898 14.103 128.005 14.103C127.113 14.103 126.27 13.978 125.608 13.7265L125.607 13.7249Z" fill="white"/>
<path d="M8.31167 0.738037C3.72906 0.738037 0 4.4671 0 9.04971C0 13.6323 3.72906 17.3614 8.31167 17.3614C12.8943 17.3614 16.6234 13.6323 16.6234 9.04971C16.6234 4.4671 12.8959 0.738037 8.31167 0.738037ZM8.31167 15.6007C4.69947 15.6007 1.7623 12.662 1.7623 9.05137C1.7623 5.44074 4.70109 2.50034 8.31167 2.50034C11.9223 2.50034 14.8611 5.43912 14.8611 9.04971C14.8611 12.6603 11.9223 15.5991 8.31167 15.5991V15.6007Z" fill="white"/>
<path d="M10.7945 9.04969C10.7945 9.41966 10.7134 9.77343 10.5674 10.0882H6.05775C5.9117 9.77343 5.83057 9.41966 5.83057 9.04969C5.83057 8.67971 5.9117 8.32594 6.05775 8.01111H10.5674C10.7134 8.32594 10.7945 8.67971 10.7945 9.04969Z" fill="white"/>
<path d="M8.31338 6.56686C9.31462 6.56686 10.1763 7.15916 10.5674 8.0111H12.7646C12.294 5.98916 10.4765 4.47839 8.31504 4.47839C6.15353 4.47839 4.33444 5.98916 3.86222 8.0111H6.05941C6.45211 7.15916 7.3138 6.56686 8.31504 6.56686H8.31338ZM8.31338 11.5341C7.31214 11.5341 6.45049 10.9418 6.05779 10.0898H3.8606C4.33119 12.1118 6.14866 13.6225 8.31338 13.6225C10.4782 13.6225 12.2924 12.1118 12.763 10.0898H10.5658C10.1747 10.9418 9.31303 11.5341 8.31179 11.5341H8.31338Z" fill="white"/>
<path d="M32.6237 10.0072H25.0131C25.1656 10.6789 25.4836 11.195 25.9672 11.552C26.4508 11.909 27.0042 12.0892 27.6273 12.0892H27.8934C28.4257 12.0892 28.8735 11.9902 29.2371 11.7905C29.6005 11.5926 29.8472 11.3086 29.9754 10.9418H32.515C32.3982 11.5845 32.1239 12.1427 31.6891 12.6198C31.2541 13.0968 30.704 13.462 30.0338 13.7151C29.3653 13.9683 28.6204 14.0948 27.801 14.0948C26.7672 14.0948 25.8455 13.9066 25.0325 13.5301C24.2195 13.1536 23.5785 12.5954 23.1112 11.8522C22.6439 11.109 22.4102 10.2067 22.4102 9.14224C22.4102 8.13289 22.6601 7.26634 23.1615 6.53772C23.6629 5.81073 24.3185 5.26225 25.1283 4.89226C25.9381 4.52227 26.798 4.33728 27.7101 4.33728C28.7194 4.33728 29.5924 4.52877 30.3324 4.91011C31.0724 5.29145 31.6387 5.83508 32.0331 6.53772C32.4273 7.24037 32.6237 8.06307 32.6237 9.00432V10.0039V10.0072ZM30.0095 8.09071C29.9722 7.49189 29.7531 7.05213 29.349 6.76977C28.945 6.48904 28.4354 6.34786 27.8172 6.34786H27.551C26.897 6.34786 26.3583 6.5004 25.9331 6.8071C25.508 7.11217 25.2159 7.54058 25.0569 8.09071H30.0079H30.0095Z" fill="white"/>
<path d="M33.5048 4.52391H36.0087V5.89999C36.3267 5.44076 36.7583 5.06753 37.3068 4.77706C37.8537 4.48659 38.5272 4.34216 39.3288 4.34216C40.2083 4.34216 40.9499 4.50606 41.552 4.83223C42.154 5.16002 42.6052 5.61277 42.9037 6.19371C43.2023 6.77466 43.3532 7.44322 43.3532 8.20105V13.9131H40.8493V8.65865C40.8493 7.94301 40.6919 7.37994 40.3771 6.96614C40.0623 6.55396 39.5868 6.34787 38.9507 6.34787H38.6943C38.2302 6.34787 37.7904 6.46633 37.3783 6.70488C36.9661 6.94342 36.6335 7.27771 36.3835 7.70936C36.1336 8.14099 36.007 8.63108 36.007 9.18116V13.9131H33.5032V4.52391H33.5048Z" fill="white"/>
<path d="M54.1428 4.52393L49.8247 13.9131H47.2299L42.9475 4.52393H45.6347L48.5411 11.0798L51.5124 4.52393H54.1444H54.1428Z" fill="white"/>
<path d="M56.8465 4.52393H54.3425V13.9131H56.8465V4.52393Z" fill="white"/>
<path d="M56.8447 0.738037H54.3408V3.24193H56.8447V0.738037Z" fill="white"/>
<path d="M59.7575 13.6988C59.0663 13.4327 58.5357 13.0546 58.1624 12.5613C57.7892 12.0696 57.5847 11.487 57.5474 10.8152H60.0789C60.1162 11.2371 60.3239 11.5552 60.702 11.7694C61.0801 11.9835 61.5539 12.0906 62.1235 12.0906H62.3896C63.6424 12.0906 64.2688 11.8343 64.2688 11.3199C64.2688 11.1236 64.1698 10.9645 63.9702 10.8379C63.7706 10.713 63.412 10.5978 62.8927 10.4939L61.3332 10.1921C60.2265 9.97137 59.3941 9.63873 58.8342 9.19249C58.2744 8.74618 57.9953 8.10521 57.9953 7.26626C57.9953 6.65449 58.1835 6.12709 58.56 5.68409C58.9365 5.24108 59.446 4.90679 60.0918 4.67961C60.736 4.45404 61.4598 4.34045 62.2598 4.34045C63.7641 4.34045 64.9049 4.62931 65.6838 5.207C66.4627 5.7847 66.8928 6.58957 66.9723 7.62326H64.4327C64.3953 7.25003 64.199 6.94495 63.842 6.70641C63.485 6.46787 62.9998 6.34941 62.388 6.34941H62.1219C61.6091 6.34941 61.2115 6.41594 60.9292 6.54576C60.6484 6.6772 60.5072 6.85571 60.5072 7.08289C60.5072 7.21109 60.5462 7.32143 60.6224 7.41231C60.6987 7.5048 60.8367 7.58757 61.0347 7.66383C61.2326 7.74009 61.5214 7.81476 61.9012 7.88777L63.3584 8.16361C64.4716 8.37135 65.3187 8.71209 65.9029 9.18598C66.487 9.65979 66.7792 10.3267 66.7792 11.1901C66.7792 11.7824 66.6087 12.2968 66.2696 12.73C65.9304 13.1633 65.4209 13.5009 64.7426 13.7394C64.0643 13.9779 63.2351 14.0964 62.2582 14.0964C61.2813 14.0964 60.4456 13.9633 59.7543 13.6972L59.7575 13.6988Z" fill="white"/>
<path d="M70.2842 0.738037H67.7803V3.24193H70.2842V0.738037Z" fill="white"/>
<path d="M70.2842 4.52393H67.7803V13.9131H70.2842V4.52393Z" fill="white"/>
<path d="M73.6855 13.4959C72.8515 13.0951 72.2024 12.5272 71.7369 11.7905C71.2728 11.0537 71.0408 10.1969 71.0408 9.2184C71.0408 8.23988 71.2728 7.3831 71.7369 6.64637C72.2011 5.90965 72.8515 5.34169 73.6855 4.94087C74.5196 4.54005 75.479 4.34045 76.5596 4.34045C77.6402 4.34045 78.5913 4.54005 79.4253 4.94087C80.2593 5.34169 80.9098 5.90965 81.3787 6.64637C81.8463 7.3831 82.0798 8.23988 82.0798 9.2184C82.0798 10.1969 81.8463 11.0537 81.3787 11.7905C80.9119 12.5272 80.2607 13.0951 79.4253 13.4959C78.5913 13.8968 77.6354 14.0964 76.5596 14.0964C75.4838 14.0964 74.5196 13.8968 73.6855 13.4959ZM76.6891 12.089C77.2391 12.089 77.7323 11.9722 78.1708 11.7401C78.6072 11.5081 78.9494 11.1754 79.1981 10.7406C79.4461 10.3073 79.5694 9.79937 79.5694 9.2184C79.5694 8.63749 79.4461 8.13119 79.1981 7.69631C78.9494 7.26302 78.6072 6.92873 78.1708 6.69668C77.7344 6.46462 77.2391 6.34779 76.6891 6.34779H76.4328C75.8766 6.34779 75.3813 6.46462 74.9483 6.69668C74.5147 6.92873 74.1739 7.26139 73.9259 7.69631C73.6772 8.12953 73.5539 8.63749 73.5539 9.2184C73.5539 9.79937 73.6772 10.3073 73.9259 10.7406C74.1739 11.1738 74.5147 11.5081 74.9483 11.7401C75.3813 11.9722 75.878 12.089 76.4328 12.089H76.6891Z" fill="white"/>
<path d="M82.8722 4.52391H85.3756V5.89999C85.6936 5.44076 86.1252 5.06753 86.6738 4.77706C87.221 4.48659 87.8943 4.34216 88.6958 4.34216C89.5755 4.34216 90.3167 4.50606 90.9194 4.83223C91.5213 5.16002 91.9723 5.61277 92.2709 6.19371C92.5708 6.77466 92.7204 7.44322 92.7204 8.20105V13.9131H90.2163V8.65865C90.2163 7.94301 90.059 7.37994 89.7439 6.96614C89.4294 6.55396 88.9542 6.34787 88.3176 6.34787H88.0613C87.5972 6.34787 87.1573 6.46633 86.7451 6.70488C86.333 6.94342 86.0005 7.27771 85.7504 7.70936C85.501 8.14099 85.3743 8.63108 85.3743 9.18116V13.9131H82.8701V4.52391H82.8722Z" fill="white"/>
</svg>
