<svg width="121" height="27" viewBox="0 0 121 27" fill="none" xmlns="http://www.w3.org/2000/svg">
<g clip-path="url(#clip0_84_208)">
<path d="M41.2531 14.577V6.73439H43.7523V19.4164H42.0234L35.4674 11.6425V19.4164H32.9683V6.73439H34.5773L41.2531 14.577ZM45.6204 14.7315C45.6204 13.3471 46.0883 12.186 47.0238 11.2478C47.9711 10.2868 49.1695 9.80624 50.6186 9.80624C52.0681 9.80624 53.266 10.2868 54.2133 11.2478C55.149 12.186 55.6169 13.3471 55.6169 14.7315C55.6169 16.1272 55.149 17.2941 54.2133 18.2323C53.266 19.1819 52.0681 19.6567 50.6186 19.6567C49.1695 19.6567 47.9711 19.1819 47.0238 18.2323C46.0883 17.2941 45.6204 16.1272 45.6204 14.7315ZM48.7699 16.6363C49.2605 17.1512 49.8769 17.4086 50.6186 17.4086C51.3375 17.4086 51.9483 17.1512 52.4505 16.6363C52.9523 16.0986 53.2034 15.4637 53.2034 14.7315C53.2034 13.9992 52.9523 13.3701 52.4505 12.8437C51.9483 12.3289 51.3375 12.0715 50.6186 12.0715C49.8769 12.0715 49.2605 12.3289 48.7699 12.8437C48.2793 13.3471 48.0338 13.9764 48.0338 14.7315C48.0338 15.4751 48.2793 16.11 48.7699 16.6363ZM64.2837 11.1448V6.37403H66.6972V19.4164H64.3348V18.2666C63.5819 19.1819 62.6175 19.6395 61.4423 19.6395C60.1069 19.6395 59.0055 19.1762 58.1385 18.2495C57.2594 17.2999 56.8204 16.1272 56.8204 14.7315C56.8204 13.3471 57.2594 12.1802 58.1385 11.2306C59.0287 10.2925 60.1297 9.82341 61.4423 9.82341C62.5604 9.82341 63.5077 10.2639 64.2837 11.1448ZM64.4035 14.7315C64.4035 13.9764 64.164 13.3414 63.6845 12.8266C63.205 12.3003 62.5831 12.0372 61.8187 12.0372C61.0542 12.0372 60.4263 12.3003 59.9357 12.8266C59.4567 13.3414 59.2167 13.9764 59.2167 14.7315C59.2167 15.498 59.4567 16.1444 59.9357 16.6706C60.4263 17.1855 61.0542 17.4429 61.8187 17.4429C62.5831 17.4429 63.205 17.1855 63.6845 16.6706C64.164 16.1444 64.4035 15.498 64.4035 14.7315ZM77.9396 14.5255C77.9396 14.8116 77.9112 15.1662 77.8542 15.5895H70.8531C71.1952 16.9166 72.1026 17.5802 73.5748 17.5802C74.659 17.5802 75.663 17.2656 76.5875 16.6363L77.546 18.3353C76.3592 19.1933 75.0011 19.6224 73.4718 19.6224C71.8403 19.6224 70.5848 19.1475 69.7062 18.198C68.8387 17.2598 68.4053 16.1044 68.4053 14.7315C68.4053 13.3014 68.8559 12.1286 69.7573 11.2135C70.6591 10.2868 71.8287 9.82341 73.2666 9.82341C74.6247 9.82341 75.7428 10.2467 76.6214 11.0933C77.5005 11.9399 77.9396 13.084 77.9396 14.5255ZM73.2666 11.8312C72.6619 11.8312 72.1425 12.0085 71.709 12.3632C71.2866 12.7064 71.0012 13.1813 70.8531 13.7876H75.5947C75.4806 13.1813 75.2179 12.7064 74.8071 12.3632C74.3963 12.0085 73.8825 11.8312 73.2666 11.8312ZM83.4549 19.6224C82.4621 19.6224 81.5436 19.4164 80.6993 19.0046C79.8546 18.5927 79.1756 18.0092 78.6622 17.2541L80.1173 15.4865C80.9616 16.665 82.0801 17.2541 83.4721 17.2541C83.997 17.2541 84.431 17.1283 84.7731 16.8766C85.1156 16.6248 85.2869 16.2988 85.2869 15.8984C85.2869 15.3721 84.9044 14.9317 84.14 14.577C84.0485 14.5312 83.6322 14.3654 82.89 14.0793C82.308 13.8505 81.8119 13.6217 81.4011 13.3929C80.0658 12.6263 79.3983 11.5738 79.3983 10.2353C79.3983 9.1713 79.7975 8.29036 80.5963 7.59244C81.4067 6.88315 82.4449 6.52845 83.712 6.52845C85.3551 6.52845 86.7415 7.1005 87.8712 8.2446L86.5191 10.098C86.1766 9.73188 85.7487 9.44583 85.2353 9.2399C84.7331 9.02254 84.237 8.91384 83.7459 8.91384C83.2442 8.91384 82.8446 9.02825 82.548 9.25707C82.2625 9.47447 82.12 9.76618 82.12 10.1323C82.12 10.6242 82.4621 11.0418 83.1467 11.385L84.3966 11.9342C85.104 12.2316 85.6178 12.4547 85.9371 12.6035C87.375 13.3014 88.094 14.3539 88.094 15.7611C88.094 16.8938 87.666 17.8205 86.8102 18.5412C85.9543 19.262 84.8357 19.6224 83.4549 19.6224ZM92.1937 19.4164H89.7797V6.37403H92.125V11.2821C92.3761 10.8473 92.7697 10.4927 93.3062 10.2181C93.8423 9.94353 94.4304 9.80624 95.069 9.80624C96.0734 9.80624 96.9293 10.1438 97.6366 10.8188C98.3444 11.4937 98.6981 12.4547 98.6981 13.7018V19.4164H96.2846V14.3539C96.2846 13.6217 96.1078 13.0553 95.7541 12.655C95.4116 12.2431 94.9381 12.0372 94.3334 12.0372C93.6942 12.0372 93.1749 12.2603 92.7753 12.7064C92.3877 13.1412 92.1937 13.7075 92.1937 14.4054V19.4164ZM103.501 7.5238C103.501 7.94713 103.359 8.30178 103.074 8.58778C102.788 8.87383 102.434 9.01683 102.012 9.01683C101.59 9.01683 101.236 8.87383 100.951 8.58778C100.666 8.30178 100.523 7.94713 100.523 7.5238C100.523 7.1005 100.666 6.75156 100.951 6.47698C101.236 6.19098 101.59 6.04798 102.012 6.04798C102.434 6.04798 102.788 6.19098 103.074 6.47698C103.359 6.75156 103.501 7.1005 103.501 7.5238ZM103.21 10.0636V19.4164H100.797V10.0636H103.21ZM110.324 8.10731C109.765 8.10731 109.337 8.25031 109.04 8.53631C108.743 8.81089 108.595 9.21131 108.595 9.73759V10.0636H111.487V12.0886H108.595V19.4164H106.181V12.0886H104.743V10.0636H106.181V9.68612C106.181 8.47337 106.53 7.55243 107.225 6.92315C107.933 6.28251 108.846 5.96216 109.964 5.96216C110.889 5.96216 111.773 6.19098 112.618 6.64862L111.83 8.50201C111.237 8.23885 110.735 8.10731 110.324 8.10731ZM118.773 16.9624L119.492 18.8673C118.717 19.3821 117.797 19.6395 116.736 19.6395C115.664 19.6395 114.854 19.3306 114.306 18.7128C113.758 18.0835 113.484 17.1626 113.484 15.9499V12.0886H111.961V10.0636H113.501V6.75156H115.898V10.0636H118.98V12.0886H115.898V15.7955C115.898 16.8938 116.337 17.4429 117.216 17.4429C117.696 17.4429 118.215 17.2828 118.773 16.9624Z" fill="white"/>
<path fill-rule="evenodd" clip-rule="evenodd" d="M13.2076 0.0546875C20.2253 0.0546875 25.9103 5.86546 25.9103 13.0385C25.9103 20.2115 20.2253 26.0223 13.2076 26.0223H6.9093C13.9034 25.9861 19.5648 20.1874 19.5648 13.0385C19.5648 9.45797 16.7223 6.54054 13.2076 6.54054C10.4359 6.54054 8.08872 8.34887 7.21595 10.8806C6.76774 12.1704 5.56469 13.0385 4.22014 13.0385C3.18221 13.0385 2.21506 12.5201 1.62533 11.6642C1.03561 10.7962 0.882282 9.69909 1.23612 8.69851C2.98171 3.65929 7.6877 0.0546875 13.2076 0.0546875Z" fill="#D6D6D6"/>
<path fill-rule="evenodd" clip-rule="evenodd" d="M6.90929 26.0345C13.9035 26.0103 19.5648 20.1996 19.5648 13.0507H16.3921C14.6465 13.0507 13.2076 14.5093 13.2076 16.3057C13.2076 21.6824 8.93795 26.0465 3.67761 26.0465H6.90929V26.0345Z" fill="#FEFEFE"/>
<path fill-rule="evenodd" clip-rule="evenodd" d="M3.67756 26.0344C8.93793 26.0344 13.2075 21.6703 13.2075 16.2935H10.0348C8.2892 16.2935 6.85029 17.7522 6.85029 19.5485C6.85029 23.129 4.00781 26.0465 0.493042 26.0465H3.67756V26.0344Z" fill="#D6D6D6"/>
<path fill-rule="evenodd" clip-rule="evenodd" d="M0.504883 26.0343C4.00785 26.0343 6.86213 23.129 6.86213 19.5364H3.6894C1.94382 19.5364 0.504883 20.9952 0.504883 22.7915V26.0343Z" fill="#ECECEC"/>
</g>
<defs>
<clipPath id="clip0_84_208">
<rect width="120.507" height="25.9917" fill="white" transform="translate(0.493042 0.0546875)"/>
</clipPath>
</defs>
</svg>
