<svg width="107" height="37" viewBox="0 0 107 37" fill="none" xmlns="http://www.w3.org/2000/svg">
<g clip-path="url(#clip0_75_19)">
<path d="M17.2465 2.28383C25.9397 2.28383 33.0015 9.32227 33.0015 18.0388C33.0015 26.7552 25.963 33.7937 17.2465 33.7937C8.53004 33.7937 1.49159 26.7086 1.49159 18.0155C1.49159 9.32227 8.53004 2.28383 17.2465 2.28383ZM17.2465 0.792236C14.9392 0.792236 12.6552 1.25836 10.5344 2.1673C8.48342 3.05293 6.64224 4.28815 5.05743 5.87297C1.81788 9.08921 0 13.4708 0 18.0621C0 20.3694 0.466122 22.6534 1.35175 24.7742C2.23739 26.8019 3.49592 28.6663 5.05743 30.2512C8.29698 33.4674 12.6785 35.2853 17.2465 35.3086C19.5538 35.3086 21.8378 34.8425 23.9587 33.9335C26.0096 33.0479 27.8508 31.8127 29.4356 30.2279C32.6752 26.9883 34.493 22.6068 34.493 18.0388C34.493 15.7315 34.0269 13.4475 33.1413 11.3266C32.2557 9.27566 31.0204 7.43448 29.4356 5.84966C27.8741 4.26485 26.0096 3.00632 23.9587 2.14399C21.8378 1.25836 19.5538 0.792236 17.2465 0.792236Z" fill="white"/>
<path d="M17.2465 4.17175C9.60214 4.17175 3.40271 10.3712 3.40271 18.0156C3.40271 25.66 9.60214 31.8594 17.2465 31.8594C24.8909 31.8594 31.0904 25.66 31.0904 18.0156C31.1137 10.3712 24.9142 4.17175 17.2465 4.17175ZM13.2612 16.3608L11.1403 18.4817H13.2612V20.789C13.2612 22.4204 11.9327 23.7489 10.3013 23.7489C8.66989 23.7489 7.34144 22.4204 7.34144 20.789V15.2888C7.34144 13.6573 8.66989 12.3289 10.3013 12.3289C11.9327 12.3289 13.2612 13.6573 13.2612 15.2888V16.3608ZM27.1982 18.4817V20.789C27.1982 22.4204 25.8698 23.7489 24.2384 23.7489C22.6069 23.7489 21.2785 22.4204 21.2785 20.789V15.2888C21.2785 13.6573 22.6069 12.3289 24.2384 12.3289C25.8698 12.3289 27.1982 13.6573 27.1982 15.2888V16.4075L25.0774 18.5283H27.1982V18.4817Z" fill="white"/>
</g>
<path d="M43.873 24.0505V12.4142H48.0207C48.926 12.4142 49.676 12.5789 50.2707 12.9085C50.8654 13.238 51.3105 13.6888 51.606 14.2608C51.9014 14.8289 52.0492 15.4691 52.0492 16.1812C52.0492 16.8971 51.8995 17.5411 51.6003 18.113C51.3048 18.6812 50.8579 19.132 50.2594 19.4653C49.6647 19.7949 48.9166 19.9596 48.0151 19.9596H45.1628V18.471H47.856C48.4279 18.471 48.892 18.3725 49.248 18.1755C49.6041 17.9748 49.8654 17.7021 50.0321 17.3574C50.1988 17.0127 50.2821 16.6206 50.2821 16.1812C50.2821 15.7418 50.1988 15.3517 50.0321 15.0108C49.8654 14.6699 49.6022 14.4028 49.2423 14.2096C48.8863 14.0164 48.4166 13.9199 47.8332 13.9199H45.6287V24.0505H43.873ZM56.4327 24.2437C55.8796 24.2437 55.3796 24.1414 54.9327 23.9369C54.4857 23.7286 54.1315 23.4274 53.8702 23.0335C53.6126 22.6396 53.4838 22.1566 53.4838 21.5846C53.4838 21.0922 53.5785 20.6869 53.7679 20.3687C53.9573 20.0505 54.213 19.7986 54.5349 19.613C54.8569 19.4274 55.2168 19.2873 55.6145 19.1926C56.0122 19.0979 56.4175 19.0259 56.8304 18.9767C57.3531 18.9161 57.7774 18.8668 58.1031 18.8289C58.4289 18.7873 58.6656 18.721 58.8134 18.6301C58.9611 18.5392 59.0349 18.3914 59.0349 18.1869V18.1471C59.0349 17.6509 58.8948 17.2664 58.6145 16.9937C58.338 16.721 57.9251 16.5846 57.3759 16.5846C56.8039 16.5846 56.3531 16.7115 56.0236 16.9653C55.6978 17.2153 55.4724 17.4937 55.3474 17.8005L53.7509 17.4369C53.9402 16.9066 54.2168 16.4786 54.5804 16.1528C54.9478 15.8233 55.3702 15.5846 55.8474 15.4369C56.3247 15.2854 56.8266 15.2096 57.3531 15.2096C57.7016 15.2096 58.0709 15.2513 58.4611 15.3346C58.855 15.4142 59.2224 15.5619 59.5634 15.7778C59.9081 15.9937 60.1902 16.3024 60.4099 16.7039C60.6296 17.1017 60.7395 17.6187 60.7395 18.2551V24.0505H59.0804V22.8574H59.0122C58.9024 23.0771 58.7376 23.293 58.5179 23.5051C58.2982 23.7172 58.016 23.8933 57.6713 24.0335C57.3266 24.1736 56.9137 24.2437 56.4327 24.2437ZM56.802 22.8801C57.2717 22.8801 57.6732 22.7873 58.0065 22.6017C58.3437 22.4161 58.5993 22.1736 58.7736 21.8744C58.9516 21.5714 59.0406 21.2475 59.0406 20.9028V19.7778C58.98 19.8384 58.8626 19.8952 58.6884 19.9483C58.5179 19.9975 58.3228 20.0411 58.1031 20.0789C57.8834 20.113 57.6694 20.1452 57.4611 20.1755C57.2527 20.2021 57.0785 20.2248 56.9384 20.2437C56.6088 20.2854 56.3077 20.3555 56.0349 20.4539C55.766 20.5524 55.5501 20.6945 55.3872 20.8801C55.2281 21.0619 55.1486 21.3043 55.1486 21.6074C55.1486 22.0278 55.3039 22.346 55.6145 22.5619C55.9251 22.774 56.3209 22.8801 56.802 22.8801ZM69.542 17.4539L68.0023 17.7267C67.9379 17.5297 67.8356 17.3422 67.6955 17.1642C67.5591 16.9861 67.3735 16.8403 67.1386 16.7267C66.9038 16.613 66.6102 16.5562 66.258 16.5562C65.7769 16.5562 65.3754 16.6642 65.0534 16.8801C64.7314 17.0922 64.5705 17.3668 64.5705 17.7039C64.5705 17.9956 64.6784 18.2305 64.8943 18.4085C65.1102 18.5865 65.4587 18.7324 65.9398 18.846L67.3261 19.1642C68.1292 19.3498 68.7277 19.6358 69.1216 20.0221C69.5155 20.4085 69.7125 20.9104 69.7125 21.5278C69.7125 22.0505 69.561 22.5164 69.258 22.9255C68.9587 23.3308 68.5402 23.649 68.0023 23.8801C67.4682 24.1111 66.8489 24.2267 66.1443 24.2267C65.167 24.2267 64.3697 24.0183 63.7523 23.6017C63.1349 23.1812 62.7561 22.5846 62.6159 21.8119L64.258 21.5619C64.3602 21.9899 64.5705 22.3138 64.8886 22.5335C65.2068 22.7494 65.6216 22.8574 66.133 22.8574C66.6898 22.8574 67.1349 22.7418 67.4682 22.5108C67.8015 22.2759 67.9682 21.9899 67.9682 21.6528C67.9682 21.3801 67.8659 21.1509 67.6614 20.9653C67.4606 20.7797 67.1519 20.6396 66.7352 20.5449L65.258 20.221C64.4436 20.0354 63.8413 19.7399 63.4511 19.3346C63.0648 18.9293 62.8716 18.4161 62.8716 17.7949C62.8716 17.2797 63.0155 16.8289 63.3034 16.4426C63.5913 16.0562 63.989 15.7551 64.4966 15.5392C65.0042 15.3195 65.5856 15.2096 66.2409 15.2096C67.1841 15.2096 67.9265 15.4142 68.4682 15.8233C69.0099 16.2286 69.3678 16.7721 69.542 17.4539ZM78.1202 17.4539L76.5804 17.7267C76.516 17.5297 76.4137 17.3422 76.2736 17.1642C76.1372 16.9861 75.9516 16.8403 75.7168 16.7267C75.4819 16.613 75.1884 16.5562 74.8361 16.5562C74.355 16.5562 73.9535 16.6642 73.6315 16.8801C73.3096 17.0922 73.1486 17.3668 73.1486 17.7039C73.1486 17.9956 73.2565 18.2305 73.4724 18.4085C73.6884 18.5865 74.0368 18.7324 74.5179 18.846L75.9043 19.1642C76.7073 19.3498 77.3058 19.6358 77.6997 20.0221C78.0937 20.4085 78.2906 20.9104 78.2906 21.5278C78.2906 22.0505 78.1391 22.5164 77.8361 22.9255C77.5368 23.3308 77.1183 23.649 76.5804 23.8801C76.0463 24.1111 75.427 24.2267 74.7224 24.2267C73.7452 24.2267 72.9478 24.0183 72.3304 23.6017C71.713 23.1812 71.3342 22.5846 71.194 21.8119L72.8361 21.5619C72.9384 21.9899 73.1486 22.3138 73.4668 22.5335C73.7849 22.7494 74.1997 22.8574 74.7111 22.8574C75.2679 22.8574 75.713 22.7418 76.0463 22.5108C76.3796 22.2759 76.5463 21.9899 76.5463 21.6528C76.5463 21.3801 76.444 21.1509 76.2395 20.9653C76.0387 20.7797 75.73 20.6396 75.3134 20.5449L73.8361 20.221C73.0217 20.0354 72.4194 19.7399 72.0293 19.3346C71.6429 18.9293 71.4497 18.4161 71.4497 17.7949C71.4497 17.2797 71.5937 16.8289 71.8815 16.4426C72.1694 16.0562 72.5671 15.7551 73.0747 15.5392C73.5823 15.3195 74.1637 15.2096 74.819 15.2096C75.7622 15.2096 76.5046 15.4142 77.0463 15.8233C77.588 16.2286 77.9459 16.7721 78.1202 17.4539ZM82.6983 24.2437C82.1453 24.2437 81.6453 24.1414 81.1983 23.9369C80.7513 23.7286 80.3972 23.4274 80.1358 23.0335C79.8782 22.6396 79.7494 22.1566 79.7494 21.5846C79.7494 21.0922 79.8441 20.6869 80.0335 20.3687C80.2229 20.0505 80.4786 19.7986 80.8006 19.613C81.1225 19.4274 81.4824 19.2873 81.8801 19.1926C82.2778 19.0979 82.6831 19.0259 83.096 18.9767C83.6188 18.9161 84.043 18.8668 84.3688 18.8289C84.6945 18.7873 84.9313 18.721 85.079 18.6301C85.2267 18.5392 85.3006 18.3914 85.3006 18.1869V18.1471C85.3006 17.6509 85.1604 17.2664 84.8801 16.9937C84.6036 16.721 84.1907 16.5846 83.6415 16.5846C83.0695 16.5846 82.6188 16.7115 82.2892 16.9653C81.9634 17.2153 81.7381 17.4937 81.6131 17.8005L80.0165 17.4369C80.2059 16.9066 80.4824 16.4786 80.846 16.1528C81.2134 15.8233 81.6358 15.5846 82.1131 15.4369C82.5903 15.2854 83.0922 15.2096 83.6188 15.2096C83.9672 15.2096 84.3366 15.2513 84.7267 15.3346C85.1206 15.4142 85.4881 15.5619 85.829 15.7778C86.1737 15.9937 86.4559 16.3024 86.6756 16.7039C86.8953 17.1017 87.0051 17.6187 87.0051 18.2551V24.0505H85.346V22.8574H85.2778C85.168 23.0771 85.0032 23.293 84.7835 23.5051C84.5638 23.7172 84.2816 23.8933 83.9369 24.0335C83.5922 24.1736 83.1794 24.2437 82.6983 24.2437ZM83.0676 22.8801C83.5373 22.8801 83.9388 22.7873 84.2722 22.6017C84.6093 22.4161 84.865 22.1736 85.0392 21.8744C85.2172 21.5714 85.3063 21.2475 85.3063 20.9028V19.7778C85.2456 19.8384 85.1282 19.8952 84.954 19.9483C84.7835 19.9975 84.5884 20.0411 84.3688 20.0789C84.1491 20.113 83.935 20.1452 83.7267 20.1755C83.5184 20.2021 83.3441 20.2248 83.204 20.2437C82.8744 20.2854 82.5733 20.3555 82.3006 20.4539C82.0316 20.5524 81.8157 20.6945 81.6528 20.8801C81.4938 21.0619 81.4142 21.3043 81.4142 21.6074C81.4142 22.0278 81.5695 22.346 81.8801 22.5619C82.1907 22.774 82.5866 22.8801 83.0676 22.8801ZM92.927 27.5051C92.2338 27.5051 91.6372 27.4142 91.1372 27.2324C90.641 27.0505 90.2357 26.81 89.9213 26.5108C89.6069 26.2115 89.3721 25.8839 89.2168 25.5278L90.677 24.9255C90.7793 25.0922 90.9156 25.2683 91.0861 25.4539C91.2603 25.6433 91.4952 25.8043 91.7906 25.9369C92.0899 26.0695 92.4743 26.1358 92.944 26.1358C93.588 26.1358 94.1202 25.9786 94.5406 25.6642C94.9611 25.3536 95.1713 24.8574 95.1713 24.1755V22.4596H95.0634C94.9611 22.6452 94.8134 22.8517 94.6202 23.0789C94.4308 23.3062 94.1694 23.5032 93.8361 23.6699C93.5027 23.8365 93.069 23.9199 92.5349 23.9199C91.8456 23.9199 91.2243 23.7589 90.6713 23.4369C90.1221 23.1111 89.6865 22.632 89.3645 21.9994C89.0463 21.363 88.8872 20.5808 88.8872 19.6528C88.8872 18.7248 89.0444 17.9293 89.3588 17.2664C89.677 16.6036 90.1126 16.096 90.6656 15.7437C91.2187 15.3877 91.8456 15.2096 92.5463 15.2096C93.088 15.2096 93.5255 15.3005 93.8588 15.4824C94.1921 15.6604 94.4516 15.8687 94.6372 16.1074C94.8266 16.346 94.9724 16.5562 95.0747 16.738H95.1997V15.3233H96.8645V24.2437C96.8645 24.9937 96.6902 25.6092 96.3418 26.0903C95.9933 26.5714 95.5217 26.9274 94.927 27.1585C94.3361 27.3896 93.6694 27.5051 92.927 27.5051ZM92.9099 22.5108C93.3986 22.5108 93.8115 22.3971 94.1486 22.1699C94.4895 21.9388 94.7471 21.6092 94.9213 21.1812C95.0993 20.7494 95.1884 20.2324 95.1884 19.6301C95.1884 19.043 95.1012 18.5259 94.927 18.0789C94.7527 17.632 94.4971 17.2835 94.1599 17.0335C93.8228 16.7797 93.4062 16.6528 92.9099 16.6528C92.3986 16.6528 91.9724 16.7854 91.6315 17.0505C91.2906 17.3119 91.0331 17.668 90.8588 18.1187C90.6884 18.5695 90.6031 19.0733 90.6031 19.6301C90.6031 20.2021 90.6902 20.7039 90.8645 21.1358C91.0387 21.5676 91.2963 21.9047 91.6372 22.1471C91.9819 22.3896 92.4062 22.5108 92.9099 22.5108ZM102.904 24.2267C102.044 24.2267 101.304 24.043 100.683 23.6755C100.065 23.3043 99.588 22.7835 99.2509 22.113C98.9175 21.4388 98.7509 20.649 98.7509 19.7437C98.7509 18.8498 98.9175 18.0619 99.2509 17.3801C99.588 16.6983 100.058 16.1661 100.66 15.7835C101.266 15.4009 101.974 15.2096 102.785 15.2096C103.277 15.2096 103.755 15.2911 104.217 15.4539C104.679 15.6168 105.094 15.8725 105.461 16.221C105.829 16.5695 106.118 17.0221 106.33 17.5789C106.543 18.132 106.649 18.8043 106.649 19.596V20.1983H99.7111V18.9255H104.984C104.984 18.4786 104.893 18.0827 104.711 17.738C104.529 17.3896 104.274 17.1149 103.944 16.9142C103.618 16.7134 103.236 16.613 102.796 16.613C102.319 16.613 101.902 16.7305 101.546 16.9653C101.194 17.1964 100.921 17.4994 100.728 17.8744C100.539 18.2456 100.444 18.649 100.444 19.0846V20.0789C100.444 20.6623 100.546 21.1585 100.751 21.5676C100.959 21.9767 101.249 22.2892 101.62 22.5051C101.991 22.7172 102.425 22.8233 102.921 22.8233C103.243 22.8233 103.537 22.7778 103.802 22.6869C104.067 22.5922 104.296 22.4521 104.489 22.2664C104.683 22.0808 104.83 21.8517 104.933 21.5789L106.541 21.8687C106.412 22.3422 106.181 22.757 105.847 23.113C105.518 23.4653 105.103 23.7399 104.603 23.9369C104.107 24.1301 103.541 24.2267 102.904 24.2267Z" fill="white"/>
<defs>
<clipPath id="clip0_75_19">
<rect width="34.493" height="36.1012" fill="white"/>
</clipPath>
</defs>
</svg>
