<svg width="92" height="26" viewBox="0 0 92 26" fill="none" xmlns="http://www.w3.org/2000/svg">
<g clip-path="url(#clip0_84_217)">
<path d="M15.3968 0.68478C15.3518 0.676849 11.1405 0.150757 7.85437 0.150757C4.56828 0.150757 0.35954 0.674205 0.314598 0.68478L0 0.721792V7.38651C0 9.85306 0.243219 13.0387 2.14138 15.8225C2.52736 16.4015 2.97943 16.9249 3.50816 17.4378L3.51609 17.4457C4.54184 18.4397 5.90862 19.3782 7.85437 20.4621C9.79747 19.3782 11.1563 18.4397 12.1926 17.4457L12.2006 17.4378C12.732 16.9223 13.1735 16.3909 13.5674 15.8225C15.4655 13.0334 15.7087 9.85306 15.7087 7.38651V0.719148L15.3941 0.682136L15.3968 0.68478ZM12.9778 15.4127C12.6077 15.9547 12.1847 16.4517 11.6824 16.9381C10.1174 18.3842 8.35138 19.1773 7.85701 19.3862C7.36265 19.1773 5.59931 18.3842 4.03161 16.9381C3.52667 16.4517 3.10368 15.9441 2.73621 15.4127C0.954368 12.8034 0.721724 9.76846 0.721724 7.4103L7.85701 7.01375L14.9844 7.4103C14.9844 9.76582 14.7517 12.8008 12.9778 15.4127ZM7.85701 6.57225H0.729655L1.1077 1.32455C2.42954 1.17915 5.40897 0.883056 7.85701 0.883056C10.3051 0.883056 13.2845 1.18179 14.6169 1.32455L14.9844 6.57225H7.85701Z" fill="white"/>
<path d="M11.159 14.3923L11.167 14.4002C11.0401 14.5086 10.9317 14.6434 10.8418 14.7809C10.8603 14.4742 10.8048 14.1676 10.662 13.8873L10.5721 13.7155L10.4003 13.816C10.0223 14.0407 9.74203 14.3949 9.61778 14.8179C9.49088 15.2435 9.53582 15.685 9.7341 16.0816V16.0895C9.59134 16.1715 9.45387 16.2799 9.34812 16.3962C9.43008 16.0975 9.43801 15.7908 9.35605 15.4841L9.31111 15.2964L9.13134 15.3599C8.71628 15.5053 8.37525 15.7934 8.16111 16.182C7.96283 16.5522 7.90996 16.9857 8.00778 17.4008C7.9549 17.4378 7.89145 17.4827 7.83594 17.5197C7.77249 17.4748 7.71961 17.4378 7.6641 17.4008C7.76191 16.9857 7.70904 16.5522 7.51076 16.182C7.30456 15.7934 6.96088 15.5053 6.53789 15.3599L6.35812 15.2964L6.31318 15.4841C6.23122 15.7829 6.2418 16.0975 6.32111 16.3962C6.20479 16.2799 6.07789 16.1715 5.92456 16.0895L5.93249 16.0816C6.13076 15.685 6.16778 15.2409 6.04881 14.8179C5.92191 14.3923 5.64433 14.0407 5.26628 13.816L5.09444 13.7155L5.00456 13.8873C4.8618 14.1676 4.80628 14.4742 4.82479 14.7809C4.7349 14.6355 4.62651 14.5086 4.49961 14.4002L4.50754 14.3923C4.7772 14.0486 4.91203 13.615 4.87766 13.1735C4.84065 12.732 4.64237 12.3329 4.31984 12.0341L4.17709 11.8993L4.06076 12.0526C3.86249 12.2958 3.74617 12.584 3.70122 12.8933C3.64571 12.74 3.5664 12.5866 3.46594 12.4518L3.47387 12.4439C3.8149 12.1637 4.03168 11.7671 4.0872 11.3335C4.14272 10.9 4.03433 10.4585 3.78053 10.1042L3.66421 9.94032L3.51088 10.0672C3.26766 10.2655 3.08789 10.5193 2.99007 10.8075C2.97157 10.6462 2.92662 10.4902 2.85525 10.3475C3.20685 10.0857 3.45007 9.70504 3.52938 9.28205C3.61134 8.84848 3.52938 8.40699 3.2941 8.03687L3.19628 7.87561L3.05352 7.99986C2.70191 8.26159 2.45869 8.64228 2.37938 9.07584C2.33444 9.29262 2.33444 9.5094 2.37938 9.71561C2.20754 9.58078 2.00927 9.48032 1.80306 9.40894L1.61536 9.35607L1.57042 9.54642C1.4726 9.97998 1.54398 10.4215 1.75812 10.8022C1.9749 11.1802 2.33444 11.4631 2.7495 11.5873L2.91076 11.6323C2.92927 11.7671 2.96364 11.9019 3.00858 12.0394C2.77329 11.8861 2.50364 11.7962 2.22605 11.7777L2.03835 11.7592V11.9575C2.03042 12.3989 2.19168 12.8166 2.47984 13.1418C2.77594 13.467 3.17249 13.6653 3.61398 13.7023L3.78582 13.7208C3.83076 13.8556 3.89421 13.9825 3.96559 14.0909C3.77789 14.0195 3.56904 13.9825 3.36283 13.9825C3.29145 13.9825 3.22007 13.9825 3.14605 13.9904L2.95835 14.0169L2.99536 14.2072C3.07731 14.6408 3.32053 15.0215 3.68007 15.2832C3.97617 15.5 4.31984 15.6084 4.68731 15.6084C4.75869 15.6084 4.83007 15.6084 4.9041 15.6004L5.07329 15.5819C5.14467 15.6983 5.22663 15.8066 5.32444 15.9071C5.05479 15.8622 4.76663 15.8886 4.5049 15.9785L4.32513 16.0419L4.39651 16.2217C4.56835 16.6288 4.88295 16.954 5.27686 17.1258C5.50157 17.2263 5.73686 17.2792 5.9695 17.2792C6.1572 17.2792 6.35548 17.2422 6.53525 17.1787L6.67007 17.1338C6.89479 17.3241 7.14594 17.5145 7.49755 17.7577C7.33628 17.8661 7.16444 17.9745 6.96617 18.1093L7.3072 18.3181C7.4949 18.1912 7.66674 18.0829 7.82007 17.9745C7.97341 18.0749 8.14525 18.1912 8.33295 18.3181L8.67398 18.1093C8.47571 17.9824 8.30387 17.8661 8.1426 17.7577C8.49421 17.5145 8.74536 17.3241 8.97008 17.1338L9.1049 17.1787C9.28467 17.2422 9.48295 17.2792 9.67065 17.2792C9.91387 17.2792 10.1465 17.2237 10.3633 17.1258C10.7598 16.9461 11.0744 16.6288 11.2463 16.2217L11.3177 16.0419L11.1379 15.9785C10.8762 15.8886 10.588 15.8622 10.3184 15.9071C10.4162 15.8066 10.4981 15.7009 10.5695 15.5819L10.7413 15.6004C10.8127 15.6084 10.8841 15.6084 10.9581 15.6084C11.3282 15.6084 11.6693 15.5 11.9654 15.2832C12.317 15.0215 12.5602 14.6408 12.6501 14.2072L12.6871 14.0169L12.4967 13.9904C12.4254 13.9825 12.354 13.9825 12.28 13.9825C12.0738 13.9825 11.8755 14.0195 11.6772 14.0909C11.7486 13.9746 11.812 13.8477 11.857 13.7208L12.0288 13.7023C12.4703 13.6653 12.8669 13.467 13.163 13.1418C13.459 12.8166 13.6124 12.391 13.6044 11.9575V11.7592L13.4062 11.7777C13.1259 11.7962 12.8589 11.894 12.6236 12.0394C12.6765 11.9125 12.7056 11.7697 12.7215 11.6323L12.9197 11.5873C13.3427 11.4604 13.6943 11.1802 13.9085 10.8022C14.1252 10.4241 14.1966 9.97998 14.0962 9.54642L14.0512 9.35871L13.8635 9.41159C13.6467 9.47504 13.459 9.58343 13.2872 9.71825C13.3242 9.5094 13.3242 9.29527 13.2872 9.07848C13.2052 8.64492 12.962 8.26423 12.6131 8.00251L12.4597 7.88619L12.3619 8.04745C12.1266 8.41756 12.0473 8.85906 12.1266 9.29262C12.2086 9.72619 12.4518 10.0963 12.8008 10.358C12.7373 10.5034 12.6924 10.6647 12.6659 10.818C12.5575 10.5299 12.3857 10.2761 12.1451 10.0778L11.9918 9.9509L11.8755 10.1148C11.6243 10.477 11.5054 10.9106 11.5688 11.3441C11.6217 11.7777 11.849 12.1742 12.1821 12.4545L12.1901 12.4624C12.0923 12.5972 12.0103 12.7426 11.9548 12.9039C11.9098 12.6052 11.7935 12.317 11.5952 12.0632L11.4789 11.9099L11.3362 12.0447C11.011 12.3434 10.8154 12.7506 10.7784 13.1841C10.7413 13.6177 10.8762 14.0512 11.1485 14.3949L11.159 14.3923ZM2.6649 11.1591C2.42168 11.0427 2.21548 10.8524 2.08065 10.6171C1.94582 10.3818 1.88237 10.1016 1.90088 9.83193C2.1441 9.94825 2.3503 10.1386 2.48513 10.3739C2.62789 10.6171 2.69134 10.8894 2.6649 11.1591ZM2.73628 9.13665C2.78915 8.86699 2.91605 8.62113 3.11433 8.42285C3.22272 8.67665 3.24915 8.9463 3.20421 9.2186C3.15134 9.48825 3.02444 9.73412 2.82616 9.93239C2.71777 9.68917 2.69134 9.40894 2.73628 9.13665ZM3.28352 11.241C3.32053 10.9714 3.43685 10.7176 3.61663 10.5087C3.74352 10.7519 3.78846 11.0242 3.75145 11.3045C3.71444 11.5741 3.59812 11.8279 3.41835 12.0341C3.29145 11.7909 3.24651 11.5107 3.28352 11.2384V11.241ZM2.76272 12.8933C2.58295 12.6845 2.46662 12.4333 2.42168 12.161C2.68341 12.2245 2.92662 12.3699 3.10639 12.5681C3.28616 12.7664 3.40249 13.0281 3.44743 13.3004C3.18571 13.2476 2.94249 13.1022 2.76272 12.8933ZM4.23789 12.4783C4.40973 12.695 4.50754 12.9488 4.53398 13.2291C4.55249 13.5093 4.48904 13.7789 4.35421 14.0142C4.18237 13.7975 4.08456 13.5437 4.05812 13.2634C4.05019 12.9832 4.10306 12.7135 4.23789 12.4783ZM3.89685 14.9871C3.67214 14.8258 3.51088 14.5985 3.41042 14.3473C3.68007 14.3553 3.9418 14.4478 4.16651 14.6091C4.39122 14.7703 4.55249 14.9871 4.64237 15.2488C4.38065 15.2303 4.12157 15.1484 3.89421 14.9871H3.89685ZM5.24513 15.0691C5.16318 14.8073 5.17375 14.5271 5.25306 14.2654C5.45927 14.4372 5.6126 14.6725 5.69456 14.9342C5.77651 15.196 5.76594 15.4762 5.68663 15.7379C5.48042 15.5661 5.32709 15.3334 5.24513 15.0691ZM5.44341 16.7954C5.19226 16.687 4.98605 16.4966 4.84065 16.264C4.90938 16.2534 4.97548 16.2455 5.04157 16.2429C5.24249 16.2376 5.44076 16.2746 5.63111 16.3618C5.88226 16.4702 6.09111 16.6606 6.23387 16.8932C5.96421 16.9381 5.68398 16.9038 5.44076 16.7954H5.44341ZM7.34421 17.1549C7.10099 17.028 6.90272 16.8298 6.77847 16.5865C6.65157 16.3512 6.59869 16.0816 6.62513 15.8093C6.86835 15.9362 7.06663 16.1345 7.19088 16.3698C7.31778 16.613 7.37065 16.8853 7.34421 17.1549ZM8.90927 16.5865C8.78237 16.8298 8.5841 17.028 8.34352 17.1549C8.30651 16.8853 8.36203 16.613 8.49686 16.3698C8.63168 16.1265 8.82996 15.9283 9.0626 15.8014C9.08904 16.071 9.03617 16.3433 8.90927 16.5865ZM10.6488 16.2429C10.7175 16.2429 10.7863 16.2508 10.8524 16.2614C10.7096 16.4966 10.5008 16.6764 10.2496 16.7927C10.0778 16.8747 9.89007 16.9091 9.69973 16.9091C9.61778 16.9091 9.53847 16.9011 9.45651 16.8906C9.59927 16.6553 9.80812 16.4755 10.0593 16.3592C10.2417 16.2772 10.4426 16.2376 10.6488 16.2402V16.2429ZM10.44 15.0691C10.358 15.3308 10.2047 15.5661 9.99847 15.7379C9.91651 15.4762 9.90858 15.196 9.99054 14.9342C10.0725 14.6725 10.2258 14.4372 10.432 14.2654C10.514 14.5271 10.5219 14.8073 10.44 15.0691ZM13.2105 10.3739C13.3454 10.1386 13.5436 9.9509 13.7948 9.83193C13.8133 10.1016 13.7498 10.3739 13.615 10.6171C13.4802 10.8524 13.274 11.0401 13.0308 11.1591C13.0123 10.8894 13.0757 10.6171 13.2105 10.3739ZM12.4809 9.22653C12.428 8.95688 12.4624 8.67665 12.5708 8.42285C12.7585 8.6132 12.8959 8.86435 12.9488 9.13665C13.0017 9.40894 12.9673 9.68653 12.8589 9.94032C12.6712 9.74205 12.5338 9.49883 12.4809 9.22653ZM13.2661 12.161C13.229 12.4412 13.1127 12.695 12.925 12.8933C12.7452 13.1022 12.502 13.237 12.2403 13.3004C12.2773 13.0308 12.3936 12.777 12.5813 12.5681C12.769 12.3593 13.0043 12.2245 13.2661 12.161ZM11.9416 11.3045C11.9046 11.0348 11.9495 10.7519 12.0764 10.5087C12.2562 10.7176 12.3725 10.9687 12.4095 11.241C12.4465 11.5107 12.4016 11.7909 12.2747 12.0368C12.0949 11.8279 11.9786 11.5768 11.9416 11.3071V11.3045ZM12.2667 14.3473C12.1769 14.6011 12.0156 14.8258 11.7909 14.9871C11.5662 15.1484 11.3044 15.2409 11.0348 15.2488C11.1247 14.9871 11.2965 14.7703 11.5107 14.6091C11.7354 14.4478 11.9971 14.3553 12.2667 14.3473ZM11.4472 12.4677C11.582 12.703 11.6455 12.9726 11.619 13.2529C11.6005 13.5225 11.4921 13.7869 11.323 14.0037C11.1961 13.7684 11.1352 13.4987 11.1511 13.2185C11.1696 12.9383 11.278 12.6845 11.4472 12.4677Z" fill="white"/>
<path d="M11.545 2.06483H11.3203C10.8444 2.06483 10.3659 1.99345 9.90591 1.93C9.48292 1.86655 9.08637 1.81104 8.72683 1.81104C8.36729 1.81104 8.09764 1.86655 7.86235 1.97494C7.62706 1.86655 7.34154 1.81104 6.99786 1.81104C6.62775 1.81104 6.23384 1.87448 5.81878 1.93C5.35878 2.00138 4.88292 2.06483 4.40706 2.06483H4.18235V2.9954H3.84924V3.53736H4.18235V4.27759H3.84924V4.81954H4.18235V5.83207H4.40706C4.91993 5.83207 5.42223 5.75012 5.90074 5.67874C6.3158 5.61529 6.70177 5.55184 7.02695 5.55184C7.2966 5.55184 7.49488 5.58885 7.64821 5.67081H8.07913C8.23246 5.58885 8.43074 5.55184 8.70039 5.55184C9.0335 5.55184 9.41947 5.61529 9.82396 5.67874C10.3104 5.75012 10.8153 5.83207 11.3176 5.83207H11.5423V4.81954H11.8755V4.27759H11.5423V3.53736H11.8755V3.00598H11.5423V2.06747L11.545 2.06483ZM7.62177 2.76012L7.53982 5.15265C7.38649 5.11563 7.21465 5.09713 7.01901 5.09713C6.6489 5.09713 6.24442 5.16058 5.82143 5.22402C5.44338 5.28747 5.0574 5.34299 4.67936 5.35885L4.77717 2.49575C5.15522 2.46931 5.51476 2.42437 5.8743 2.36885C6.27878 2.3054 6.65683 2.25253 6.98993 2.25253C7.25166 2.25253 7.45786 2.28954 7.61913 2.36092V2.75747L7.62177 2.76012ZM9.89005 5.22667C9.46706 5.16322 9.06258 5.09977 8.69246 5.09977C8.49419 5.09977 8.32235 5.11828 8.17166 5.15529L8.0897 2.76276V2.36621C8.26154 2.29483 8.45982 2.25782 8.7189 2.25782C9.052 2.25782 9.43005 2.31069 9.83453 2.37414C10.1861 2.42701 10.5536 2.4746 10.9317 2.50104L11.0295 5.36414C10.6514 5.34563 10.2655 5.29276 9.88741 5.22931L9.89005 5.22667Z" fill="white"/>
<path d="M7.05599 9.81321H4.53657C4.53657 9.81321 4.51806 9.81321 4.51013 9.82378C4.51013 9.84229 4.51013 9.85022 4.52864 9.85022L6.5722 11.3413L5.78967 13.7708C5.78967 13.7708 5.78967 13.7787 5.7976 13.7787H5.80553L7.8676 12.2798L9.92703 13.7787H9.93496C9.93496 13.7787 9.94289 13.7602 9.93496 13.7602L9.15243 11.3413L11.196 9.85022C11.196 9.85022 11.2145 9.84229 11.2039 9.82378C11.2039 9.81585 11.196 9.81321 11.1854 9.81321H8.65806L7.87554 7.40217C7.87554 7.40217 7.8676 7.38367 7.85703 7.38367C7.85703 7.38367 7.83852 7.3916 7.83852 7.40217L7.05599 9.81321ZM7.85703 9.09148L8.32496 10.2732L9.58335 10.3552L8.61312 11.1668L8.92772 12.3961L7.85703 11.7193L6.78634 12.3961L7.10094 11.1668L6.12013 10.3552L7.3891 10.2653L7.85703 9.09148Z" fill="white"/>
<path d="M85.3143 23.521L84.9362 23.3359C84.7195 23.2302 84.5952 23.135 84.5952 22.9764C84.5952 22.8019 84.7829 22.6961 84.9733 22.6961C85.1636 22.6961 85.3064 22.7754 85.3513 22.8019L85.4782 23.1429H85.7399V22.6591C85.5945 22.5534 85.3064 22.4397 85.0367 22.4397C84.4604 22.564 84.1352 22.7569 84.1352 23.09C84.1352 23.3623 84.3335 23.5448 84.5503 23.6505L84.9362 23.8514C85.1874 23.9836 85.2958 24.0708 85.2958 24.2559C85.2958 24.4568 85.161 24.6234 84.8992 24.6234C84.7459 24.6234 84.6031 24.5705 84.4947 24.5018L84.3229 24.0973H84.0083L84.0982 24.6419C84.233 24.7133 84.5476 24.8613 84.8543 24.8613C85.4227 24.7397 85.7822 24.5811 85.7822 24.1422C85.7822 23.8699 85.6474 23.6875 85.3143 23.5183V23.521Z" fill="white"/>
<path d="M79.6646 21.3767L79.3658 21.456L78.1418 24.5808L77.7532 24.6337L77.7796 24.8003L78.311 24.7818L78.9058 24.8003L78.9323 24.6337L78.4987 24.5729L78.8239 23.6688V23.6767H80.04L80.3731 24.5808L79.9501 24.6443L79.9765 24.8108L80.6348 24.7923L81.3195 24.8108L81.3459 24.6443L80.9573 24.5914L79.6593 21.3794L79.6646 21.3767ZM78.8979 23.4388L79.4478 21.9028L79.4848 22.1672L79.9527 23.4388H78.8979Z" fill="white"/>
<path d="M83.5296 24.5387C83.4926 24.4594 83.4662 24.388 83.4662 24.1792V22.5216L83.215 22.5401L82.6651 22.6617L82.6916 22.8468L82.9903 22.8203V24.1818L82.8925 24.2426C82.7022 24.3642 82.5039 24.4885 82.3505 24.4885C82.1073 24.4885 81.9989 24.3828 81.9989 24.129V22.5216L81.7557 22.5401L81.1609 22.6617L81.1873 22.8468L81.5389 22.8203V24.084C81.5389 24.6445 81.6473 24.8745 82.3056 24.8745L83.0273 24.4356L83.1622 24.8295L83.8019 24.7079L83.7834 24.5414H83.5296V24.5387Z" fill="white"/>
<path d="M52.7521 22.5532L52.3212 22.5347L52.2948 22.7013L52.5195 22.7541L51.9061 24.5016L51.8691 24.1685L51.3192 22.7541L51.6444 22.7013L51.618 22.5347H50.0582V21.9293H49.9313L49.6061 22.2439V22.5585H49.281L49.1091 22.7251V22.8044H49.585V24.2425C49.585 24.6814 49.6564 24.8744 50.2168 24.8744L50.8381 24.5413L50.7561 24.3747C50.6213 24.4355 50.468 24.5069 50.3226 24.5069C50.1164 24.5069 50.0609 24.3589 50.0609 24.2161V22.7409H50.809L51.6391 24.7766L51.8374 24.7158L51.3404 25.4428H50.9174V25.9424H51.5122L52.0701 24.7237L52.8711 22.7489L53.1857 22.696L53.1592 22.5294L52.7442 22.5479L52.7521 22.5532Z" fill="white"/>
<path d="M55.3455 22.4581C54.5788 22.5903 54.1294 22.9922 54.1294 23.7218C54.1294 24.3722 54.5788 24.8718 55.2371 24.8718C56.0038 24.7502 56.4532 24.3378 56.4532 23.6187C56.4532 22.9604 56.0117 22.4608 55.3455 22.4608V22.4581ZM55.364 24.6339C54.9225 24.6339 54.6264 24.1686 54.6343 23.6161C54.6343 23.09 54.8326 22.6934 55.2371 22.6934C55.6416 22.6934 55.9668 23.1058 55.9668 23.7192C55.9668 24.2373 55.7605 24.6312 55.364 24.6312V24.6339Z" fill="white"/>
<path d="M48.6781 22.5267L48.4349 22.5452L47.8401 22.6933L47.8692 22.8598L48.2102 22.8334V24.5994L47.8692 24.6417L47.8956 24.8082L48.464 24.7924L49.0218 24.8082L49.0482 24.6417L48.6781 24.5994V22.5267Z" fill="white"/>
<path d="M88.2779 21.4668L88.2329 21.6942L88.2593 21.9665L88.3942 21.9929L88.7458 21.9665L88.8013 21.7365L88.7749 21.4668L88.6374 21.4377L88.2779 21.4668Z" fill="white"/>
<path d="M91.7621 12.9118C91.7621 10.5272 90.16 9.36133 88.3253 8.56823L85.6525 7.40501C84.3756 6.84455 83.4662 6.05145 83.4662 4.76662C83.4662 3.2042 84.5554 2.20225 86.4007 2.20225C87.7965 2.20225 88.5421 2.71777 89.1448 3.34961L89.819 5.47248H90.9795V2.32122C89.819 1.45409 88.1905 0.967651 86.7232 0.967651C83.4926 1.64443 81.1609 3.13547 81.1609 5.68133C81.1609 7.75926 82.5383 8.8326 84.2117 9.55432L87.0272 10.7916C88.4231 11.397 89.4488 12.309 89.4488 13.8979C89.4488 15.6057 88.2883 16.8588 86.2896 16.8588C84.9837 16.8588 83.7068 16.2534 83.0141 15.3863L82.2052 13.4009H80.5767L81.0895 16.5521C82.3215 17.5277 83.7623 18.141 85.9037 18.141C90.2763 17.2289 91.7621 15.106 91.7621 12.9118Z" fill="white"/>
<path d="M75.9874 21.9292H75.8605L75.5353 22.2438V22.5584H75.2102L75.0383 22.725V22.8043H75.5142V24.2425C75.5142 24.6813 75.5856 24.8743 76.146 24.8743L76.7224 24.5597L76.6404 24.3931C76.495 24.4539 76.3866 24.5068 76.2438 24.5068C76.0376 24.5068 75.9821 24.3588 75.9821 24.216V22.8017H76.7303V22.5822H75.9821V21.924L75.9874 21.9292Z" fill="white"/>
<path d="M74.8002 24.5281C74.7552 24.4488 74.7182 24.3774 74.7182 24.1686V23.2222C74.7182 22.6168 74.5569 22.4581 73.933 22.4581L73.05 22.852V23.2222H73.473L73.555 22.8362C73.6634 22.7912 73.8246 22.7489 73.9595 22.7489C74.2212 22.7489 74.2476 22.9234 74.2476 23.2142V23.4522L73.1294 23.8117C73.021 23.9597 72.9575 24.084 72.9575 24.2585C72.9575 24.6445 73.2642 24.8718 73.6872 24.8718L74.2741 24.4515L74.4274 24.8189L75.0672 24.6973L75.0487 24.5308H74.7975L74.8002 24.5281ZM74.2397 24.2743L74.0335 24.4145C73.9701 24.4594 73.8432 24.5361 73.7083 24.5361C73.5629 24.5361 73.4202 24.4488 73.4202 24.203C73.4202 24.0972 73.4466 24.002 73.518 23.9307L74.2397 23.6399V24.2717V24.2743Z" fill="white"/>
<path d="M57.7988 21.3954L57.3838 21.8527C57.204 22.0457 57.1141 22.2387 57.1141 22.5269V22.5718H56.8259L56.6726 22.7384V22.8177H57.1062V24.5995L56.7546 24.6445L56.781 24.811L57.3494 24.7925L58.1161 24.811L58.1425 24.626L57.5741 24.5916V22.8098H58.1954V22.5824H57.5741V22.4608C57.5741 22.1435 57.6111 22.0034 57.6825 21.9162L57.7803 21.784H58.4201V21.398H57.7988V21.3954Z" fill="white"/>
<path d="M47.0574 23.521L46.6794 23.3359C46.4626 23.2302 46.3357 23.135 46.3357 22.9764C46.3357 22.8019 46.526 22.6961 46.7137 22.6961C46.9014 22.6961 47.0389 22.7754 47.0918 22.8019L47.2187 23.1429H47.4804V22.6591C47.335 22.5534 47.0468 22.4397 46.7772 22.4397C46.2008 22.5613 45.8757 22.7569 45.8757 23.09C45.8757 23.3623 46.074 23.5448 46.2907 23.6505L46.6794 23.8514C46.9411 23.9836 47.0389 24.0708 47.0389 24.2559C47.0389 24.4568 46.9041 24.6234 46.6423 24.6234C46.489 24.6234 46.3436 24.5705 46.2352 24.5018L46.0634 24.0973H45.7488L45.8387 24.6419C45.9735 24.7133 46.2881 24.8613 46.5948 24.8613C47.1631 24.7397 47.5227 24.5811 47.5227 24.1422C47.5227 23.8699 47.3879 23.6875 47.0548 23.5183L47.0574 23.521Z" fill="white"/>
<path d="M69.1851 24.5281C69.1402 24.4488 69.1032 24.3774 69.1032 24.1686V23.2222C69.1032 22.6168 68.9419 22.4581 68.318 22.4581L67.4165 22.852V23.2222H67.8395L67.9214 22.8362C68.0298 22.7912 68.1911 22.7489 68.3259 22.7489C68.5877 22.7489 68.6141 22.9234 68.6141 23.2142V23.4522L67.4958 23.8117C67.3874 23.9597 67.324 24.084 67.324 24.2585C67.324 24.6445 67.6306 24.8718 68.0536 24.8718L68.6485 24.4515L68.8018 24.8189L69.4416 24.6973L69.4231 24.5308H69.1798L69.1851 24.5281ZM68.6273 24.2743L68.4211 24.4145C68.3577 24.4594 68.2308 24.5361 68.0959 24.5361C67.9505 24.5361 67.8078 24.4488 67.8078 24.203C67.8078 24.0972 67.8342 24.002 67.9056 23.9307L68.6273 23.6399V24.2717V24.2743Z" fill="white"/>
<path d="M70.9537 23.521L70.5756 23.3359C70.3588 23.2302 70.2346 23.135 70.2346 22.9764C70.2346 22.8019 70.4223 22.6961 70.6126 22.6961C70.803 22.6961 70.9378 22.7754 70.9907 22.8019L71.1176 23.1429H71.3793V22.6591C71.2339 22.5534 70.9457 22.4397 70.6761 22.4397C70.0998 22.5613 69.7746 22.7569 69.7746 23.09C69.7746 23.3623 69.9729 23.5448 70.1897 23.6505L70.5756 23.8514C70.8374 23.9836 70.9352 24.0708 70.9352 24.2559C70.9352 24.4568 70.8003 24.6234 70.5386 24.6234C70.3853 24.6234 70.2425 24.5705 70.1341 24.5018L69.9623 24.0973H69.6477L69.7376 24.6419C69.8724 24.7133 70.1976 24.8613 70.4937 24.8613C71.0621 24.7397 71.4216 24.5811 71.4216 24.1422C71.4216 23.8699 71.2868 23.6875 70.9537 23.5183V23.521Z" fill="white"/>
<path d="M62.1846 21.6677L62.4093 22.2811H62.597V21.4298L61.1747 21.4483L59.7524 21.4298V22.2811H59.9481L60.1754 21.6677L60.9209 21.6598V24.5811L60.3288 24.6419L60.3552 24.8084L61.1853 24.7926L61.9863 24.8084L62.0049 24.6419L61.4365 24.5811V21.6598L62.1846 21.6677Z" fill="white"/>
<path d="M66.0681 23.5287L66.7263 22.7541L67.0859 22.7039L67.0594 22.5267L66.5439 22.5452L66.1579 22.5267L66.1315 22.7039L66.3747 22.7541L65.9041 23.415L65.8698 23.2908L65.4997 22.7541L65.6979 22.7039L65.6715 22.5267L65.2036 22.5452L64.6352 22.5267L64.6087 22.7039L64.9154 22.7541L65.6345 23.7137L64.9048 24.5888L64.5532 24.6337L64.5823 24.8003L65.0952 24.7818L65.4812 24.8003L65.5102 24.6337L65.267 24.5994L65.7878 23.8618L65.8248 23.9755L66.2663 24.5994L66.0601 24.6417L66.0866 24.8082L66.5545 24.7924L67.1229 24.8082L67.1493 24.6417L66.8426 24.5994L66.0681 23.5287Z" fill="white"/>
<path d="M63.6887 24.5121C63.1758 24.5121 62.8692 24.1261 62.8692 23.5736V23.5656H64.384V23.3647C64.384 22.8651 64.1672 22.4606 63.5089 22.4606C62.8322 22.6007 62.3933 22.9867 62.3933 23.6978C62.3933 24.4618 62.9247 24.8742 63.5275 24.8742C63.842 24.7949 64.1593 24.6548 64.3919 24.4962L64.31 24.3111C64.1196 24.4248 63.887 24.5121 63.6887 24.5121ZM63.4006 22.6932C63.7892 22.6932 63.8606 22.9576 63.8606 23.3251L62.8692 23.3674C62.9062 22.9629 63.1018 22.6906 63.4006 22.6906V22.6932Z" fill="white"/>
<path d="M91.6193 24.5995V23.2565C91.6193 22.6776 91.5109 22.4661 90.8817 22.4661L90.152 22.9314L90.1256 22.5269L89.9088 22.5454L89.314 22.6934L89.3404 22.86L89.6814 22.8335V24.5969L89.3404 24.6418L89.3668 24.8084L89.9326 24.7899L90.4005 24.8163L90.427 24.6497L90.1573 24.6074V23.1772L90.3106 23.0794C90.4825 22.9657 90.6517 22.86 90.8235 22.86C91.0297 22.86 91.1487 22.9657 91.1487 23.2195V24.5969L90.8975 24.6418L90.924 24.8084L91.3998 24.7899L91.9682 24.8084L91.9947 24.6418L91.6166 24.5969L91.6193 24.5995Z" fill="white"/>
<path d="M27.8882 2.47973L31.3699 2.52467L32.4406 5.48823H33.35V1.36145L26.6536 1.43283L19.9783 1.36145V5.48823H20.8877L21.9557 2.52467L25.4401 2.47973V16.6234L22.651 16.9301L22.7674 17.7417L26.6721 17.6703L30.442 17.7417L30.5609 16.9301L27.8882 16.6234V2.47973Z" fill="white"/>
<path d="M29.3714 24.5121C28.8585 24.5121 28.5518 24.1261 28.5518 23.5736V23.5656H30.0561V23.3647C30.0561 22.8651 29.8393 22.4606 29.181 22.4606C28.5042 22.6007 28.0627 22.9867 28.0627 23.6978C28.0627 24.4618 28.6047 24.8742 29.2075 24.8742C29.5221 24.7949 29.8393 24.6548 30.0719 24.4962L29.99 24.3111C29.7996 24.4248 29.567 24.5121 29.3687 24.5121H29.3714ZM29.0832 22.6932C29.4718 22.6932 29.5432 22.9576 29.5432 23.3251L28.5518 23.3674C28.5888 22.9629 28.7765 22.6906 29.0832 22.6906V22.6932Z" fill="white"/>
<path d="M27.4784 23.3094C27.4784 22.696 27.37 22.466 26.7408 22.466L26.0191 22.9234V21.361H25.8472L25.3158 21.4218L24.0997 21.4297L22.6748 21.4218V22.273H22.8625L23.0872 21.6676L23.8354 21.6491V24.573L23.2406 24.6338L23.267 24.8004L24.0971 24.7819L24.8981 24.8004L24.9272 24.6338L24.3588 24.573V21.6491L25.3687 21.6676L25.5485 21.6412V24.5995L25.2524 24.6444L25.2788 24.811L25.8023 24.7925L26.2702 24.811L26.2966 24.6444L26.027 24.5995V23.1692L26.1697 23.082C26.3495 22.9683 26.5399 22.8626 26.6932 22.8626C26.8915 22.8626 27.0078 22.9683 27.0078 23.2221V24.5995L26.7646 24.6444L26.791 24.811L27.2589 24.7925L27.8168 24.8004L27.8432 24.6338L27.4731 24.5889V23.3067L27.4784 23.3094Z" fill="white"/>
<path d="M47.1897 17.7417L48.0013 13.4246H47.1183L45.5612 16.5785L39.1635 16.6498V9.64145L42.4205 9.74191L43.3485 12.1873H44.168L43.9327 9.03605L44.168 6.12007H43.3485L42.4205 8.56548L39.1635 8.66594V2.45329L45.3286 2.52467L46.6319 5.55961H47.425L47.1897 1.36145L37.958 1.43283L34.7459 1.36145L34.627 2.17306L36.726 2.47973V16.6234L34.627 16.9301L34.7459 17.7417L37.958 17.6703L47.1897 17.7417Z" fill="white"/>
<path d="M37.9553 21.4668L37.9104 21.6942L37.9395 21.9665L38.0743 21.9929L38.4233 21.9665L38.4788 21.7365L38.4524 21.4668L38.3175 21.4377L37.9553 21.4668Z" fill="white"/>
<path d="M34.0902 21.4376L33.4583 21.4191L33.4319 21.5856L33.8655 21.6385V23.6583C33.8655 24.2822 33.5773 24.6153 33.0644 24.6153C32.496 24.6153 32.2343 24.2742 32.2343 23.6768V21.6491L32.6573 21.5883L32.6309 21.4217L31.9541 21.4402L31.2694 21.4217L31.2429 21.5883L31.695 21.6491V23.6054C31.695 24.3773 32.0466 24.8876 33.0195 24.8876C34.0109 24.6602 34.2726 24.2478 34.2726 23.616V21.6491L34.6956 21.5883L34.6691 21.4217L34.0928 21.4402L34.0902 21.4376Z" fill="white"/>
<path d="M42.7694 24.5121C42.2565 24.5121 41.9498 24.1261 41.9498 23.5736V23.5656H43.4541V23.3647C43.4541 22.8651 43.2373 22.4606 42.579 22.4606C41.9022 22.6007 41.4634 22.9867 41.4634 23.6978C41.4634 24.4618 42.0027 24.8742 42.6081 24.8742C42.9227 24.7949 43.2399 24.6548 43.4726 24.4962L43.3906 24.3111C43.2003 24.4248 42.9676 24.5121 42.7694 24.5121ZM42.4891 22.6932C42.8777 22.6932 42.9491 22.9576 42.9491 23.3251L41.9577 23.3674C41.9948 22.9629 42.1825 22.6906 42.4891 22.6906V22.6932Z" fill="white"/>
<path d="M88.7377 22.5267L88.4945 22.5452L87.8997 22.6933L87.9261 22.8598L88.2671 22.8334V24.5994L87.9261 24.6417L87.9525 24.8082L88.5209 24.7924L89.0787 24.8082L89.1052 24.6417L88.7377 24.5994V22.5267Z" fill="white"/>
<path d="M80.4499 16.9566L78.6311 16.7028L72.5559 1.15271L71.1627 1.54926L65.3942 16.6764L64.2785 16.8297L63.1629 16.6579L57.9972 9.02823L62.7664 2.44547L64.5826 2.19168L64.4662 1.37742L61.7485 1.45145L59.0308 1.37742L58.9145 2.19168L60.9396 2.49834L57.249 7.94432L53.9655 2.47984L55.9457 2.17317L55.8293 1.35892L52.5274 1.4488L49.199 1.35892L49.0827 2.17317L50.9015 2.42696L55.7157 9.73145L50.6953 16.6658L48.8765 16.9196L48.9928 17.7603L51.5942 17.6863L54.3119 17.7603L54.4282 16.9196L52.5195 16.6394L56.4876 10.8233L60.1042 16.6209L58.1241 16.9275L58.2404 17.7682L61.5688 17.6942L64.2865 17.7497L66.1952 17.6942L68.9843 17.7682L69.1006 16.954L67.0756 16.6473L68.5877 12.2852H74.3298L75.9134 16.6473L73.9333 16.954L74.0496 17.7682L77.1189 17.6942L80.331 17.7682L80.4473 16.954L80.4499 16.9566ZM68.9499 11.159L71.361 4.16122L73.8989 11.159H68.9499Z" fill="white"/>
<path d="M38.4339 22.5267L38.1827 22.5452L37.5879 22.6933L37.6143 22.8598L37.958 22.8334V24.5994L37.6143 24.6417L37.6408 24.8082L38.2092 24.7924L38.7775 24.8082L38.804 24.6417L38.4339 24.5994V22.5267Z" fill="white"/>
<path d="M37.0565 23.2565C37.0565 22.6776 36.9481 22.4661 36.3189 22.4661L35.5893 22.9314L35.5628 22.5269L35.346 22.5454L34.7512 22.6934L34.7777 22.86L35.1187 22.8335V24.5969L34.7777 24.6418L34.8041 24.8084L35.3725 24.7899L35.8483 24.8163L35.8748 24.6497L35.6051 24.6074V23.1772L35.7479 23.0794C35.9197 22.9657 36.0916 22.86 36.2608 22.86C36.467 22.86 36.5859 22.9657 36.5859 23.2195V24.5969L36.3348 24.6418L36.3612 24.8084L36.8371 24.7899L37.4055 24.8084L37.4319 24.6418L37.0539 24.5969V23.2539L37.0565 23.2565Z" fill="white"/>
<path d="M41.453 22.5267L41.0379 22.5452L40.607 22.5267L40.5779 22.6933L40.8053 22.7462L40.1999 24.4936L40.1814 24.1605L39.642 22.7462L39.9672 22.6933L39.9381 22.5267L39.4173 22.5452L38.8489 22.5267L38.8225 22.6933L39.1292 22.7462L39.9937 24.8796L40.3532 24.7316L41.1648 22.7462L41.4794 22.6933L41.453 22.5267Z" fill="white"/>
<path d="M86.9003 21.9292H86.7734L86.4482 22.2438V22.5584H86.123L85.9512 22.725V22.8043H86.4297V24.2425C86.4297 24.6813 86.5011 24.8743 87.0615 24.8743L87.6378 24.5597L87.5559 24.3931C87.4211 24.4539 87.3127 24.5068 87.1699 24.5068C86.9637 24.5068 86.9082 24.3588 86.9082 24.216V22.8017H87.6458V22.5822H86.8976V21.924L86.9003 21.9292Z" fill="white"/>
<path d="M45.1383 22.4846L44.5699 23.1614L44.5514 22.5216L44.3531 22.5401L43.7583 22.6908L43.7847 22.8574L44.1258 22.8309V24.5943L43.7847 24.6392L43.8112 24.8058L44.369 24.7873L45.0907 24.8058L45.1172 24.6207L44.5937 24.5784V23.4284L44.6915 23.3147C44.8263 23.1561 45.0431 23.0001 45.1595 22.9737H45.5296V22.4899H45.133L45.1383 22.4846Z" fill="white"/>
<path d="M48.337 21.9929L48.686 21.9665L48.7415 21.7365L48.7151 21.4668L48.5776 21.4377L48.218 21.4668L48.1731 21.6942L48.1995 21.9665L48.337 21.9929Z" fill="white"/>
<path d="M9.39304 3.10374V2.73362C9.23442 2.71512 9.08373 2.69926 8.93568 2.69133C8.78763 2.68339 8.64223 2.68339 8.50476 2.69661L8.51269 3.05615C8.77442 3.03765 9.07051 3.05615 9.39304 3.1011V3.10374Z" fill="white"/>
<path d="M8.56819 4.34099L8.57613 4.70317C8.87222 4.68466 9.22383 4.72167 9.5913 4.77455V4.41501C9.23176 4.36213 8.88015 4.32512 8.56555 4.34099H8.56819Z" fill="white"/>
<path d="M9.32159 3.91533V3.55315C9.04136 3.52671 8.78228 3.5082 8.53906 3.51613L8.54699 3.87832C8.78228 3.85981 9.04136 3.87832 9.31895 3.91533H9.32159Z" fill="white"/>
<path d="M10.572 3.71698C10.3473 3.69054 10.1226 3.65353 9.89785 3.6271C9.80004 3.60859 9.69165 3.59802 9.59119 3.58215V3.95227C9.67314 3.9602 9.76303 3.97871 9.84234 3.98928C10.0856 4.02629 10.3288 4.06066 10.5799 4.0871L10.572 3.71698Z" fill="white"/>
<path d="M6.15442 2.75209V3.1222C6.5404 3.06933 6.89201 3.03232 7.19867 3.05875L7.2066 2.69921C7.12465 2.69128 7.04269 2.68599 6.9581 2.68335C6.70166 2.68335 6.43201 2.71243 6.15442 2.75209Z" fill="white"/>
<path d="M9.9059 4.44922C9.9059 4.44922 9.8874 4.44922 9.86889 4.44128V4.81933H9.86096C10.1042 4.85634 10.3553 4.89335 10.6171 4.91979L10.6091 4.54967C10.3659 4.52324 10.1333 4.48623 9.9059 4.45186V4.44922Z" fill="white"/>
<path d="M10.5535 3.25702L10.5456 2.88691C10.3288 2.86047 10.1147 2.83139 9.89788 2.79702C9.81593 2.78909 9.74455 2.77852 9.6626 2.76001V3.13012C9.72605 3.13806 9.77892 3.14863 9.84237 3.15656C10.0777 3.19357 10.3103 3.22794 10.5535 3.25438V3.25702Z" fill="white"/>
<path d="M6.86026 3.51342C6.53509 3.524 6.18612 3.57423 5.82922 3.6271V3.99722C5.84773 3.99722 5.85566 3.99722 5.87417 3.98928C6.3606 3.9179 6.8021 3.85446 7.16957 3.88089L7.1775 3.51871C7.0744 3.51078 6.96865 3.51078 6.86026 3.51342Z" fill="white"/>
<path d="M5.88473 3.15918V2.78906C5.85829 2.79699 5.83978 2.79699 5.81335 2.79699C5.59657 2.83401 5.38243 2.86044 5.16565 2.88688L5.15771 3.25699C5.40093 3.23056 5.63358 3.19355 5.86886 3.15918H5.88737H5.88473Z" fill="white"/>
<path d="M5.55958 3.66418H5.55165C5.41682 3.68269 5.27142 3.7012 5.13659 3.71706L5.12866 4.08717L5.55958 4.0343V3.66418Z" fill="white"/>
<path d="M5.88483 4.4493C5.85839 4.4493 5.83989 4.45723 5.82138 4.45723C5.58609 4.49424 5.35345 4.52861 5.11816 4.55505L5.11023 4.92516C5.37195 4.89872 5.63103 4.86171 5.88483 4.8247H5.90333V4.44666H5.88483V4.4493Z" fill="white"/>
<path d="M6.1545 4.41232V4.78243C6.51404 4.72956 6.84714 4.69255 7.1353 4.71105L7.14324 4.34887C6.83657 4.33036 6.50346 4.36737 6.15186 4.41232H6.1545Z" fill="white"/>
</g>
<defs>
<clipPath id="clip0_84_217">
<rect width="92" height="25.7997" fill="white" transform="translate(0 0.150757)"/>
</clipPath>
</defs>
</svg>
