<svg width="78" height="37" viewBox="0 0 78 37" fill="none" xmlns="http://www.w3.org/2000/svg">
<g clip-path="url(#clip0_84_198)">
<path fill-rule="evenodd" clip-rule="evenodd" d="M70.9562 22.3221C70.8793 22.2609 70.7899 22.2431 70.7179 22.2431C70.5752 22.2431 70.4274 22.3102 70.3184 22.4197L70.2993 22.4382L70.2858 22.4603C68.7955 24.8019 67.5458 26.3645 66.4531 27.3396C65.3622 28.3132 64.4467 28.685 63.6178 28.685C63.1496 28.685 62.8811 28.5497 62.7216 28.3543C62.554 28.1492 62.4684 27.8322 62.4684 27.3929C62.4684 26.7048 62.6709 25.8906 62.9914 25.0391C63.2992 24.221 63.7102 23.3829 64.135 22.6117C65.7346 22.1376 67.6075 21.283 68.8294 20.2047L68.8312 20.2032L68.833 20.2016C69.2695 19.8011 69.6413 19.3847 69.9054 18.9651C70.1689 18.5464 70.3339 18.1107 70.3339 17.6769C70.3339 17.3498 70.2415 17.008 69.9916 16.7469C69.7397 16.4833 69.3587 16.3351 68.8496 16.3351C67.8413 16.3351 66.5584 16.8151 65.324 17.6291C64.0839 18.4467 62.8659 19.6185 61.9915 21.0392C61.6833 21.5372 61.4286 22.0435 61.2254 22.5519C59.7887 24.6982 58.5611 26.2372 57.4555 27.2386C56.3465 28.243 55.3841 28.6849 54.4766 28.6849C54.0534 28.6849 53.7901 28.5469 53.626 28.3424C53.4545 28.1291 53.3626 27.8079 53.3626 27.3929C53.3626 26.586 53.6331 25.6153 54.082 24.5638C54.5293 23.5159 55.1452 22.4062 55.8179 21.3264C56.5795 20.1044 57.3357 19.0506 58.02 18.3054C58.3622 17.9324 58.6809 17.6432 58.9675 17.4488C59.2577 17.252 59.4925 17.168 59.6727 17.168C59.8632 17.168 60.0326 17.278 60.2118 17.5329C60.3926 17.7902 60.5467 18.1436 60.7174 18.5383L60.9641 19.1077L62.08 17.0787L61.9179 16.9541C61.4076 16.5614 60.7137 16.3351 59.9218 16.3351C57.2121 16.3351 54.5485 18.3643 53.0641 20.7542L53.0638 20.7545C52.7099 21.3263 52.3999 21.9015 52.1513 22.4951L51.0004 24.2739L51 24.2743C50.1605 25.5784 49.4329 26.6991 48.7145 27.4958C47.9945 28.2944 47.3249 28.7204 46.6094 28.7204C46.311 28.7204 46.1079 28.6421 45.9818 28.5283C45.859 28.4176 45.7802 28.247 45.7802 27.998C45.7802 27.6665 45.8465 27.3531 46.3154 26.5027C46.787 25.6482 47.6449 24.2855 49.1948 21.8626L49.1952 21.8619L52.0938 17.2969L51.9654 16.6555H47.7045L47.6408 16.7032C47.5464 16.7739 47.4748 16.8545 47.4283 16.9475C47.3814 17.0411 47.3675 17.133 47.3675 17.2143V17.4527H48.8745L47.1548 20.1838C46.6547 20.9817 46.2104 21.7137 45.8415 22.4204L45.8401 22.4214L44.8566 23.8786C43.857 25.36 43.0046 26.6065 42.1921 27.4846C41.3762 28.3663 40.6443 28.8273 39.8936 28.8273C39.6311 28.8273 39.4555 28.758 39.3476 28.6587C39.2425 28.5623 39.1711 28.4096 39.1711 28.1759C39.1711 27.9012 39.2792 27.5542 39.5972 27.0053C39.914 26.4586 40.4222 25.7391 41.1872 24.7251L42.2904 23.266L42.2905 23.2659C43.7306 21.3577 44.1537 20.2401 44.1537 18.8158C44.1537 18.1246 44.0551 17.5127 43.7913 17.0662C43.5156 16.5996 43.0712 16.3351 42.4561 16.3351C41.6381 16.3351 40.7476 16.7524 39.8151 17.4683C38.878 18.188 37.8702 19.2313 36.8132 20.534L36.7881 20.565H36.4663V18.709C36.4663 18.0295 36.3395 17.5023 36.0173 17.1474C35.6898 16.7867 35.2085 16.6555 34.6263 16.6555H33.3193L33.2494 16.7253C33.1507 16.824 33.0559 16.9681 33.0087 17.1563L32.9347 17.4527H34.484C34.9305 17.4527 35.1501 17.5325 35.261 17.6294C35.3622 17.7179 35.42 17.8634 35.42 18.1395C35.42 18.4066 35.3223 18.7417 35.1143 19.1753C34.9076 19.6059 34.603 20.1114 34.2126 20.7149L34.2118 20.7159L28.819 29.233H31.873L34.9697 24.4604L35.1464 24.1776C36.636 21.9791 38.0305 20.2246 39.2679 19.0225C39.8869 18.421 40.4611 17.9631 40.983 17.6568C41.5066 17.3496 41.9624 17.2035 42.3493 17.2035C42.584 17.2035 42.6882 17.2586 42.7368 17.3072C42.785 17.3554 42.8227 17.4415 42.8227 17.6058C42.8227 17.847 42.7217 18.1687 42.4703 18.6195C42.2209 19.0667 41.8379 19.6162 41.3062 20.3075L41.306 20.3078L40.1316 21.8381L40.1312 21.8385C38.6244 23.8118 37.9113 25.3937 37.9113 26.9659C37.9113 27.5362 38.0021 28.1795 38.2888 28.6889C38.5851 29.215 39.0877 29.5889 39.858 29.5889C40.9346 29.5889 41.9221 28.8739 42.8395 27.8822C43.4944 27.1745 44.1379 26.2984 44.7767 25.3723C44.7019 25.8048 44.6626 26.2499 44.6626 26.7167C44.6626 27.2614 44.7249 27.9376 44.994 28.4857C45.1303 28.7633 45.3232 29.0151 45.594 29.197C45.8663 29.3799 46.2028 29.4821 46.6094 29.4821C47.6211 29.4821 48.5079 28.8392 49.3148 27.9475C50.0758 27.1065 50.8054 25.9986 51.5359 24.8707C51.5108 25.1247 51.4977 25.3839 51.4977 25.649C51.4977 26.6613 51.7364 27.6194 52.2194 28.332C52.7077 29.0524 53.4451 29.5177 54.4055 29.5177C55.4636 29.5177 56.506 29.0537 57.6187 28.1148C58.5548 27.3252 59.5532 26.1891 60.6679 24.6794C60.6246 25.0183 60.6034 25.3539 60.6034 25.6847C60.6034 26.6817 60.8521 27.6308 61.3396 28.338C61.8313 29.0515 62.5676 29.5177 63.5111 29.5177C64.5847 29.5177 65.6884 29.0458 66.9074 27.9676C68.1245 26.8914 69.4732 25.197 71.0442 22.7159L71.0811 22.6575V22.5884C71.0811 22.4868 71.04 22.3891 70.9562 22.3221ZM67.086 18.3227C67.4799 17.9139 67.8499 17.604 68.1879 17.3978C68.5277 17.1906 68.8201 17.0968 69.0632 17.0968C69.267 17.0968 69.3729 17.1539 69.4314 17.2164C69.4923 17.2821 69.5366 17.3932 69.5366 17.5702C69.5366 17.8271 69.4277 18.1378 69.2048 18.4873C68.9974 18.812 68.7007 19.1546 68.3362 19.4962C68.3122 19.5188 68.2876 19.5415 68.263 19.5641L68.2617 19.565L68.2623 19.5644C67.3445 20.3936 65.981 21.1302 64.6802 21.6334C65.5098 20.2339 66.3319 19.1064 67.086 18.3227Z" fill="white"/>
<path fill-rule="evenodd" clip-rule="evenodd" d="M31.1704 22.6575V22.5884C31.1704 22.4868 31.129 22.3891 31.0453 22.3221C30.9688 22.2609 30.8794 22.2431 30.8074 22.2431C30.6644 22.2431 30.5169 22.3102 30.4075 22.4197L30.389 22.4382L30.3749 22.4603C28.8848 24.8019 27.6352 26.3645 26.5424 27.3396C25.4516 28.3132 24.5359 28.685 23.7072 28.685C23.2388 28.685 22.9703 28.5497 22.8108 28.3543C22.6432 28.1492 22.5576 27.8322 22.5576 27.3929C22.5576 26.7048 22.7602 25.8906 23.0806 25.0391C23.3885 24.221 23.7994 23.3829 24.2242 22.6117C25.8238 22.1376 27.6966 21.283 28.9188 20.2047L28.9203 20.2032L28.9221 20.2016C29.3589 19.8011 29.7308 19.3847 29.9949 18.9651C30.2583 18.5464 30.423 18.1107 30.423 17.6769C30.423 17.3498 30.3309 17.008 30.0811 16.7469C29.8288 16.4833 29.4479 16.3351 28.939 16.3351C27.9307 16.3351 26.6478 16.8151 25.4133 17.6291C24.1731 18.4468 22.955 19.6188 22.0805 21.0397C21.1333 22.57 20.6927 24.1789 20.6927 25.6847C20.6927 26.6817 20.9413 27.6308 21.4288 28.338C21.9205 29.0515 22.657 29.5177 23.6003 29.5177C24.6739 29.5177 25.7778 29.0458 26.9971 27.9676C28.214 26.8914 29.5626 25.197 31.1335 22.7159L31.1704 22.6575ZM27.1754 18.3227C27.5692 17.9139 27.9393 17.604 28.2774 17.3978C28.6169 17.1906 28.9094 17.0968 29.1524 17.0968C29.3561 17.0968 29.4623 17.1539 29.5205 17.2164C29.5815 17.2821 29.6258 17.3932 29.6258 17.5702C29.6258 17.8271 29.5172 18.1378 29.294 18.4873C29.0727 18.8337 28.7502 19.2005 28.3516 19.5646C27.4333 20.3937 26.0706 21.1302 24.7695 21.6334C25.5992 20.2339 26.421 19.1064 27.1754 18.3227Z" fill="white"/>
<path fill-rule="evenodd" clip-rule="evenodd" d="M23.3742 14.9454C23.7175 14.4501 24.0584 13.9578 24.3987 13.4713C26.6424 10.2624 28.7692 7.22239 31.0759 4.98161C33.379 2.74438 35.835 1.33037 38.7333 1.33037C39.7397 1.33037 40.781 1.50419 41.6804 1.81551L41.9022 1.89231L42.2115 1.04204L41.9685 0.970055C40.987 0.679267 39.8609 0.497559 38.7333 0.497559C35.6171 0.497559 32.9838 2.00743 30.5942 4.3057H13.8631L13.3634 5.1385H20.2544C18.4524 5.99926 17.1261 7.44362 16.1327 9.00265C14.928 10.8931 14.1997 12.9727 13.7016 14.4316C13.1659 15.9642 12.7256 17.3766 12.3211 18.6743L12.3207 18.6756C11.4559 21.4502 10.7586 23.682 9.64259 25.4971C8.53497 27.2985 7.01018 28.6946 4.47359 29.7716L4.21326 29.882L4.81 30.8103L5.00724 30.6953C5.84436 30.207 6.63637 29.8673 7.58289 29.5858C11.4451 28.4371 14.5288 26.0053 17.204 23.0682C19.4705 20.5797 21.4557 17.7143 23.3742 14.9454ZM9.59392 27.4589C10.9939 26.2157 12.1275 24.8271 13.1436 23.0974C14.2684 21.1825 15.2492 18.8496 16.2877 15.8328V15.8331V15.8327C16.5629 15.0384 16.8175 14.2454 17.0655 13.4726L17.066 13.4713C17.7991 11.1878 18.4722 9.09751 19.4601 7.57364C20.4368 6.06761 21.705 5.1385 23.643 5.1385H29.7715C27.6801 7.34488 25.7252 10.1336 23.7104 13.008L23.7024 13.0193C19.7482 18.6605 15.5577 24.627 9.59392 27.4589Z" fill="white"/>
</g>
<defs>
<clipPath id="clip0_84_198">
<rect width="78" height="36" fill="white" transform="translate(0 0.0505371)"/>
</clipPath>
</defs>
</svg>
